<?xml version="1.0" encoding="utf-8"?>
<!-- Generator: Adobe Illustrator 23.0.4, SVG Export Plug-In . SVG Version: 6.00 Build 0)  -->
<svg width="35px" height="35px" version="1.1" id="Layer_1" xmlns="http://www.w3.org/2000/svg" xmlns:xlink="http://www.w3.org/1999/xlink" x="0px" y="0px"
	 viewBox="0 0 36.3 36.3" style="enable-background:new 0 0 36.3 36.3;" xml:space="preserve">
<style type="text/css">
	.st0{opacity:0.8;}
	.st1{fill:#0AC4E2;}
	.st2{opacity:0.7;}
	.st3{fill:#1B5266;}
	.st4{fill:#010002;}
	.st5{fill:#707070;}
	.st6{fill:#CECECE;}
	.st7{fill:none;stroke:#000000;stroke-miterlimit:10;}
</style>
<g>
	<g>
		<g>
			<path class="st1" d="M23.5,2.1C9.7-2.4-3,10.3,1.6,24.1C3.2,29,7.1,32.9,12,34.5c13.8,4.5,26.4-8.1,21.9-21.9
				C32.3,7.7,28.4,3.8,23.5,2.1z M22,18.9h-2.8v9.9h-4.1v-9.9h-2v-3.5h2v-2.3c0-1.6,0.8-4.2,4.2-4.2l3.1,0v3.4c0,0-1.9,0-2.2,0
				s-0.9,0.2-0.9,1v2.1h3.1L22,18.9z"/>
		</g>
	</g>
</g>
</svg>
