<?xml version="1.0" encoding="utf-8"?>
<!-- Generator: Adobe Illustrator 23.0.4, SVG Export Plug-In . SVG Version: 6.00 Build 0)  -->
<svg width="35px" height="35px" version="1.1" id="Layer_1" xmlns="http://www.w3.org/2000/svg" xmlns:xlink="http://www.w3.org/1999/xlink" x="0px" y="0px"
	 viewBox="0 0 36.3 36.3" style="enable-background:new 0 0 36.3 36.3;" xml:space="preserve">
<style type="text/css">
	.st0{opacity:0.8;}
	.st1{fill:#0AC4E2;}
	.st2{opacity:0.7;}
	.st3{fill:#1B5266;}
	.st4{fill:#010002;}
	.st5{fill:#707070;}
	.st6{fill:#CECECE;}
	.st7{fill:none;stroke:#000000;stroke-miterlimit:10;}
</style>
<g>
	<g>
		<path class="st1" d="M24.1,2.1C10.3-2.4-2.3,10.3,2.2,24.1c1.6,4.9,5.5,8.9,10.5,10.5c13.8,4.5,26.4-8.1,21.9-21.9
			C32.9,7.7,29,3.8,24.1,2.1z M18.9,28.2c-6,0-10.1-4.9-10.1-9.9c0-5.1,4.3-9.9,9.9-9.9c4.4,0,6.8,2.7,6.8,2.7l-1.9,2
			c0,0-1.8-1.9-4.8-1.9c-4,0-7.1,3.1-7.1,7.2c0,4.2,3.3,7.2,7.1,7.2c3,0,6.1-1.6,6.4-5.4h-6.4v-2.7h9.1c0,0,0.1,0.7,0.1,1.8
			C28,24.6,24.1,28.2,18.9,28.2z"/>
	</g>
</g>
</svg>
