<?xml version="1.0" encoding="utf-8"?>
<!-- Generator: Adobe Illustrator 23.0.4, SVG Export Plug-In . SVG Version: 6.00 Build 0)  -->
<svg version="1.1" id="Layer_1" xmlns="http://www.w3.org/2000/svg" xmlns:xlink="http://www.w3.org/1999/xlink" x="0px" y="0px"
	 viewBox="0 0 256 254" style="enable-background:new 0 0 256 254;" xml:space="preserve">
<style type="text/css">
	.st0{opacity:0.8;}
	.st1{fill:#0AC4E2;}
	.st2{opacity:0.7;}
	.st3{fill:#1B5266;}
</style>
<g>
	<path d="M137.1,1.4C60.1-4.7-3.7,59.1,2.4,136.1c4.8,60.6,53.9,109.7,114.5,114.5c77,6.1,140.8-57.7,134.7-134.7
		C246.8,55.3,197.7,6.2,137.1,1.4z M90.7,190H60.2V98.4h30.4V190z M75.5,85.9h-0.2c-10.2,0-16.8-7-16.8-15.8c0-9,6.8-15.8,17.2-15.8
		s16.8,6.8,17,15.8C92.7,78.8,86.1,85.9,75.5,85.9z M200.4,190H170v-49c0-12.3-4.4-20.7-15.4-20.7c-8.4,0-13.4,5.7-15.6,11.1
		c-0.8,2-1,4.7-1,7.4V190h-30.4c0,0,0.4-83,0-91.6H138v13c4-6.2,11.3-15.1,27.4-15.1c20,0,35,13.1,35,41.2V190z"/>
</g>
</svg>
