<?xml version="1.0" encoding="utf-8"?>
<!-- Generator: Adobe Illustrator 23.0.4, SVG Export Plug-In . SVG Version: 6.00 Build 0)  -->
<svg width="35px" height="35px" version="1.1" id="Layer_1" xmlns="http://www.w3.org/2000/svg" xmlns:xlink="http://www.w3.org/1999/xlink" x="0px" y="0px"
	 viewBox="0 0 36.3 36.3" style="enable-background:new 0 0 36.3 36.3;" xml:space="preserve">
<style type="text/css">
	.st0{opacity:0.8;}
	.st1{fill:#0AC4E2;}
	.st2{opacity:0.7;}
	.st3{fill:#1B5266;}
	.st4{fill:#010002;}
	.st5{fill:#707070;}
	.st6{fill:#CECECE;}
	.st7{fill:none;stroke:#000000;stroke-miterlimit:10;}
</style>
<g>
	<g>
		<path class="st1" d="M19.5,1.1C9,0.2,0.2,9,1.1,19.5c0.7,8.3,7.4,15,15.7,15.7C27.3,36,36,27.3,35.2,16.7
			C34.5,8.4,27.8,1.7,19.5,1.1z M13.1,26.9H9V14.3h4.2V26.9z M11.1,12.6L11.1,12.6c-1.4,0-2.3-1-2.3-2.2c0-1.2,0.9-2.2,2.4-2.2
			s2.3,0.9,2.3,2.2C13.4,11.7,12.5,12.6,11.1,12.6z M28.2,26.9H24v-6.7c0-1.7-0.6-2.8-2.1-2.8c-1.2,0-1.8,0.8-2.1,1.5
			c-0.1,0.3-0.1,0.6-0.1,1v7h-4.2c0,0,0.1-11.4,0-12.5h4.2v1.8c0.6-0.9,1.5-2.1,3.8-2.1c2.7,0,4.8,1.8,4.8,5.6V26.9z"/>
	</g>
</g>
</svg>
